<svg width="179" height="171" viewBox="0 0 179 171" fill="none" xmlns="http://www.w3.org/2000/svg">
<path d="M31.7979 46.2422H36.848V64.9465H37.2221L37.5962 64.1983L39.8407 62.1408L48.4447 53.5369H48.8188V53.1628H49.1928L49.5669 52.4146H49.941V52.0405H50.3151V51.6664L53.3078 49.0478L55.3652 48.2997L56.3005 48.1126H58.9191L61.9118 48.8608L64.5303 50.3571L66.2137 52.0405L67.1489 53.9109L67.7101 56.1555V57.8388L66.9619 60.8315L65.4656 62.889L64.9044 63.076V63.4501H64.5303L64.1563 64.1983L62.6599 65.5076L60.6024 67.5651L60.9765 68.3132L67.523 74.8597L66.4008 76.3561L64.9044 77.6654L58.1709 84.3989L57.4227 84.0248L54.243 80.8451V80.471L53.4948 80.0969L52.7467 79.3488V78.9747L51.9985 78.6006L51.2503 77.8524V77.4783H50.8762V77.1043H50.5021L49.754 76.169L48.0706 74.4857H47.1354L46.7613 75.2338L45.0779 76.7302L44.1427 77.6654L43.3945 78.6006L41.8982 79.9099L32.359 89.4491L31.7979 89.6361V46.2422Z" fill="#D62736"/>
<path d="M46.1988 61.5781L47.5081 62.7004L52.9324 68.1246V68.4987H53.3064L54.6157 69.9951L60.7882 76.1675L60.6011 76.9156L59.2918 78.2249L58.5436 77.8509L48.0693 67.3765L46.7599 68.4987L37.0337 78.2249H36.8467V70.7432L42.0839 65.506H42.458V65.1319L43.9543 63.8226L46.1988 61.5781Z" fill="white"/>
<path d="M125.881 59.7031H127.938V75.4147H125.881V74.1054L124.198 75.2277L123.075 75.6018H121.018L119.147 74.8536L117.838 73.5443L116.903 71.6739L116.716 70.5516V69.0553L117.09 67.3719L118.212 65.6885L119.521 64.5662L121.205 64.0051H122.888L124.385 64.5662L125.881 65.5015V59.7031Z" fill="#070D1A"/>
<path d="M57.7965 52.6016H59.854L61.3503 53.5368L62.4726 54.8461L63.0337 56.3424V58.774L61.9114 60.2703L59.6669 62.5148L57.6095 64.1982L56.8613 64.3853L51.25 58.774L52.3723 57.4647L56.4872 53.3497L57.7965 52.6016Z" fill="white"/>
<path d="M85.8533 64.0156H88.2848L90.1553 64.9508L91.0905 65.8861L91.6516 66.6342L92.2127 68.5047V70.3751L83.6088 70.5621L84.3569 72.2455L85.4792 73.1807L86.6015 73.5548H88.2848L89.7812 72.9937L90.7164 72.4326L91.6516 73.7419L91.4646 74.303L89.2201 75.4252L88.2848 75.6123H86.0403L84.3569 75.0512L82.6736 73.7419L81.7383 72.2455L81.3643 70.5621L81.5513 68.1306L82.6736 65.8861H83.0476L83.4217 65.1379L85.2922 64.2027L85.8533 64.0156Z" fill="#070D1A"/>
<path d="M109.42 64.0156H111.478L113.348 64.7638L114.283 65.8861L114.657 67.5694V75.0512L114.47 75.4252H112.6L112.413 74.49L110.168 75.6123H108.111L106.614 74.8641L105.866 73.9289L105.492 73.1807V71.3103L106.24 70.001L107.176 69.2528L109.046 68.6917H112.6L112.226 67.0083L111.665 66.4472L109.981 66.0731L108.111 66.6342L107.363 67.3824L106.614 67.0083L105.866 66.2601L106.053 65.699L107.737 64.5768L109.42 64.0156Z" fill="#070D1A"/>
<path d="M134.484 64.0156H136.541L138.037 64.5768L138.973 65.3249L139.534 66.4472V75.4252H137.663L137.476 74.303L136.541 75.0512L135.232 75.6123H133.174L131.678 74.8641L130.743 73.7419L130.556 73.1807V71.3103L131.117 70.188L132.239 69.2528L133.922 68.6917H137.663L137.289 66.6342L135.606 66.0731L133.922 66.2601L132.8 67.0083L132.052 67.3824L130.93 66.2601L131.304 65.512L133.174 64.3897L134.484 64.0156Z" fill="#070D1A"/>
<path d="M47.3208 80.6562L48.0689 81.0303L57.047 90.0084L52.745 89.8214L50.1264 87.0157L47.6949 84.3971L46.3856 85.5194L42.4577 89.4473L41.8965 89.6343L38.7168 89.4473L39.8391 88.138L47.3208 80.6562Z" fill="#070D1A"/>
<path d="M93.5225 64.1953H96.1411L98.7597 67.5621L98.9467 67.9362L99.5078 67.7491L100.817 65.5046L101.752 64.1953H104.184L103.436 65.5046L101.191 68.6843L100.63 69.4325L100.817 70.3677L102.501 72.4252L104.558 75.2308V75.4179H101.939L99.1337 71.677L98.5726 71.8641L96.7022 74.4827L95.954 75.4179H93.5225L94.6447 73.7345L97.2633 70.3677L97.4504 69.6196L95.5799 67.188L94.2706 65.5046L93.5225 64.5694V64.1953Z" fill="#070D1A"/>
<path d="M70.3291 60.4609H72.3866L72.5736 73.1798L79.4942 73.3669V75.4244H70.3291V60.4609Z" fill="#070D1A"/>
<path d="M121.39 65.8828H123.447L124.943 66.818L125.692 68.1273L125.879 68.8755V70.933L124.943 72.8034L124.008 73.5516L123.447 73.7386H121.39L120.08 72.9904L119.145 71.6811L118.958 70.933V68.6885L119.519 67.3792L120.267 66.4439L121.39 65.8828Z" fill="white"/>
<path d="M96.7015 90.0156H98.3849L99.5071 90.7638L100.255 91.8861V93.5694L99.5071 94.6917L98.3849 95.4399H96.7015L95.5792 94.6917L95.0181 93.9435L94.8311 93.3824V91.8861L95.5792 90.7638L96.7015 90.0156Z" fill="#D72736"/>
<path d="M112.973 90.0156H114.282L115.405 90.7638L116.153 91.8861V93.7565L115.031 95.0658L114.095 95.4399H112.786L111.664 94.8787L110.916 93.7565L110.729 92.6342L111.103 91.3249L112.038 90.3897L112.973 90.0156Z" fill="#070D1A"/>
<path d="M80.9891 90.0156H82.2984L83.6077 90.7638L84.1688 91.699L84.3559 93.0083L83.7948 94.3176L83.0466 95.0658L82.1114 95.4399L80.428 95.2528L79.3057 94.3176L78.9316 93.7565V91.699L80.0539 90.3897L80.9891 90.0156Z" fill="#070D1A"/>
<path d="M133.922 70.3594H137.663V72.4168L136.167 73.5391L135.606 73.7261H133.361L132.613 72.978L132.426 72.0428L132.987 70.9205L133.922 70.3594Z" fill="white"/>
<path d="M109.046 70.3594H112.6V72.4168L111.478 73.3521L110.542 73.7261L109.046 73.9132L107.924 73.3521L107.55 72.978V71.4816L108.485 70.5464L109.046 70.3594Z" fill="white"/>
<path d="M86.4131 65.8828L88.2835 66.0699L89.4057 66.818L89.9669 67.7532V68.6885H83.6074L84.1686 67.0051H84.5426V66.631L86.4131 65.8828Z" fill="white"/>
<path d="M108.111 55.3984H109.046L109.607 56.1466L109.42 57.643L108.485 58.5782L107.55 58.2041L107.176 57.0818L107.737 55.7725L108.111 55.3984Z" fill="#1C2732"/>
<path d="M115.593 77.1094H117.463L117.837 77.4835L117.65 78.4187L117.089 78.6057L117.837 79.915L117.089 79.5409L115.967 78.6057V79.915H115.593V77.1094Z" fill="#070D1A"/>
<path d="M97.4502 77.1094H99.3206L99.6947 77.4835L99.5077 78.4187L98.9465 78.6057L99.5077 79.5409L99.6947 79.915L98.9465 79.5409L98.0113 78.7928L97.8243 79.915H97.4502V77.1094Z" fill="#070D1A"/>
<path d="M92.9609 77.1094H94.8314L95.2055 77.4835L95.0184 78.6057L94.8314 78.7928H93.335V79.915H92.9609V77.1094Z" fill="#070D1A"/>
<path d="M104.745 77.1094H105.119L106.054 78.9798L106.802 78.0446L107.363 77.1094H107.737V79.915H107.363L107.176 78.4187L106.241 79.915L105.68 79.1668L105.119 78.2316L104.932 79.915L104.558 79.5409L104.745 77.1094Z" fill="#070D1A"/>
<path d="M125.319 77.1094H125.88L127.002 79.728H126.441V79.1668H124.757L124.57 79.915H124.196L124.757 78.2316L125.319 77.1094Z" fill="#070D1A"/>
<path d="M95.9529 57.6484L96.3269 58.0225L95.3917 58.9577L95.5788 59.3318L96.3269 58.9577L96.8881 59.1448L96.1399 59.893L96.701 60.4541L97.8233 59.7059V60.267L96.514 61.2023L95.7658 60.4541L94.6436 58.9577V58.5837L95.9529 57.6484Z" fill="#070D1A"/>
<path d="M108.111 55.3984H109.046L109.607 56.1466L109.42 57.643L108.485 58.5782L107.55 58.2041L107.176 57.0818L107.737 55.7725L108.111 55.3984ZM108.298 55.7725L107.737 56.3337L107.55 57.643L108.111 58.2041L108.859 57.83L109.233 57.0818V56.1466L108.859 55.7725H108.298Z" fill="#070D1A"/>
<path d="M120.081 77.1094H122.139V77.2964H120.455V78.2316H121.951V78.6057H120.455V79.5409H122.139V79.915H120.081V77.1094Z" fill="#070D1A"/>
<path d="M110.169 77.1094H112.226V77.2964H110.543V78.2316H112.039V78.6057H110.543V79.5409H112.226V79.915H110.169V77.1094Z" fill="#070D1A"/>
<path d="M110.916 56.5234L112.226 56.7105L112.413 57.8327L110.729 58.955L111.477 59.5161L111.29 59.8902L109.794 59.142V58.5809L111.664 57.8327L111.851 57.0846H110.729L110.916 56.5234Z" fill="#070D1A"/>
<path d="M113.535 58.0234L114.47 58.2105L114.844 58.5846L114.657 59.7068L113.722 60.0809H112.6V60.455L113.348 60.8291V61.3902L111.852 60.268L112.039 59.8939L114.096 59.3327V58.5846H113.348L113.535 58.0234Z" fill="#070D1A"/>
<path d="M104.932 55.0391H106.054L106.428 55.4131L106.241 56.5354L105.306 57.6577H106.428V58.0317H104.558L104.932 57.2836L105.867 55.9743V55.6002L104.558 55.7872L104.932 55.0391Z" fill="#070D1A"/>
<path d="M136.915 77.1094H137.476L138.037 78.0446V78.4187H138.411L138.785 77.4835L138.973 77.1094L139.534 77.2964L138.598 78.7928L138.411 79.915H138.037L137.663 78.4187L136.915 77.1094Z" fill="#070D1A"/>
<path d="M129.06 77.1094H129.434V79.5409H131.117V79.915H129.06V77.1094Z" fill="#070D1A"/>
<path d="M115.967 77.2891L117.463 77.4761V78.2243L117.089 78.4113H115.967V77.2891Z" fill="white"/>
<path d="M97.8223 77.2891H98.9445L99.3186 77.6631V78.2243L98.9445 78.4113H97.8223V77.2891Z" fill="white"/>
<path d="M93.335 77.2891L94.6443 77.4761L94.8313 78.2243L94.6443 78.4113H93.335V77.2891Z" fill="white"/>
<path d="M132.613 77.1094H135.045V77.2964L134.11 77.4835L133.923 79.915H133.548V77.2964H132.613V77.1094Z" fill="#070D1A"/>
<path d="M100.066 55.7812L100.441 55.9683V56.3424L101.189 56.5294L100.815 56.7165L101.189 58.5869H100.815L100.254 57.0905L99.6924 56.7165L100.066 55.7812Z" fill="#070D1A"/>
</svg>
